<?xml version="1.0" encoding="utf-8"?>
<!-- Generator: Adobe Illustrator 22.1.0, SVG Export Plug-In . SVG Version: 6.00 Build 0)  -->
<svg version="1.1" id="Layer_1" xmlns="http://www.w3.org/2000/svg" xmlns:xlink="http://www.w3.org/1999/xlink" x="0px" y="0px"
	 viewBox="0 0 261.9 191.1" style="enable-background:new 0 0 261.9 191.1;" xml:space="preserve">
<style type="text/css">
	.st0{fill:#C9D249;}
	.st1{fill:none;stroke:#C9D249;stroke-width:2;stroke-miterlimit:10;}
</style>
<g>
	<path class="st0" d="M66.9,56.3h-2.3V23.9h2.3v6.6c2.4-4.9,6.6-7.3,12.5-7.3c4,0,7.4,1.4,10.2,4.2c2.7,2.8,4.1,6.2,4.1,10.2v18.9
		h-2.3V37.5c0-3.3-1.2-6.2-3.5-8.6c-2.3-2.4-5.1-3.7-8.5-3.7s-6.2,1.2-8.7,3.7c-2.5,2.4-3.8,5.3-3.8,8.6V56.3z"/>
</g>
<g>
	<path class="st0" d="M75.5,99v1.7c-2.8,0-5.3-0.9-7.3-2.9c-2-1.9-3-4.3-3-7.3V62.5h1.9v10.9h8.3v1.7h-8.3v15.5
		c0,2.4,0.8,4.5,2.4,6.1C71.2,98.2,73.2,99,75.5,99z"/>
</g>
<g>
	<path class="st0" d="M145.6,171.7c-3.3-3.4-5-7.4-5-12c0-4.6,1.7-8.5,5-11.8c3.4-3.3,7.4-5,12.1-5c4.7,0,8.8,1.7,12.1,5
		c3.3,3.3,5,7.3,5,11.9c0,4.6-1.6,8.6-4.9,12c-3.3,3.4-7.2,5.1-11.9,5.1h-0.6C152.9,176.8,148.9,175.1,145.6,171.7z M172.6,159.9
		c0-4.1-1.5-7.6-4.4-10.5c-2.9-3-6.4-4.5-10.4-4.5c-4,0-7.5,1.5-10.5,4.5c-3,3-4.4,6.5-4.4,10.5c0,4,1.5,7.5,4.4,10.5
		c3,3,6.5,4.4,10.5,4.4c4.1,0,7.5-1.5,10.4-4.4C171.2,167.4,172.6,163.9,172.6,159.9z"/>
	<path class="st0" d="M209,143.6h2.1L195.2,177l-16-33.3h2.5l13.7,28.4L209,143.6z"/>
	<path class="st0" d="M231.6,176.9H231c-4.6,0-8.5-1.7-11.9-5.1c-3.4-3.4-5.1-7.4-5.1-12c0-4.6,1.7-8.5,5-11.8c3.4-3.3,7.5-5,12.5-5
		c4.9,0,9.2,2,12.7,5.9l-22.6,22.3c3.1,2.5,6.1,3.7,9,3.7c2.9,0,5.5-0.7,7.7-2c2.3-1.3,4.2-3.1,5.7-5.3v3.7
		C240.6,175,236.5,176.9,231.6,176.9z M230.9,144.9c-3.8,0-7.2,1.5-10.2,4.4c-3,3-4.4,6.3-4.4,10.2c0,3.8,1.3,7.2,3.8,10.1l21-20.8
		C238.1,146.2,234.7,144.9,230.9,144.9z"/>
</g>
<g>
	<path class="st0" d="M82.5,118.6h-1.9V73.7h1.9v23.2c2-3.9,5.5-5.9,10.4-5.9c3.4,0,6.2,1.2,8.5,3.5c2.3,2.3,3.4,5.1,3.4,8.5v15.7
		h-1.9v-15.7c0-2.8-1-5.2-2.9-7.2c-2-2-4.3-3-7.1-3c-2.8,0-5.2,1-7.3,3.1c-2.1,2-3.1,4.4-3.1,7.2V118.6z"/>
	<path class="st0" d="M124.9,119.4h-0.5c-3.8,0-7.1-1.4-9.9-4.3c-2.8-2.9-4.2-6.2-4.2-10s1.4-7.1,4.2-9.9c2.8-2.8,6.3-4.2,10.4-4.2
		c4.1,0,7.7,1.6,10.6,4.9l-18.8,18.6c2.6,2.1,5.1,3.1,7.5,3.1c2.4,0,4.5-0.5,6.5-1.7c1.9-1.1,3.5-2.6,4.7-4.4v3.1
		C132.4,117.8,129,119.4,124.9,119.4z M124.3,92.7c-3.2,0-6,1.2-8.5,3.7c-2.5,2.5-3.7,5.3-3.7,8.5c0,3.2,1.1,6,3.2,8.4L132.8,96
		C130.3,93.8,127.5,92.7,124.3,92.7z"/>
</g>
<g>
	<g>
		<path class="st0" d="M35.7,1.1C20.9-3.2,5.7,5.4,1.2,20.1c-4.6,15,4,27.8,17.4,33.9c6.6,3,15.4,3.6,22.3,0.8
			c6.2-2.5,10.2-8.3,13.1-14C61.4,26.6,56.6,11.2,42.3,4c-0.5-0.3-1.7-0.4-1.9,0.4c-0.7,2.2-1.2,4.3-1.6,6.6
			c0.8,0.1,1.7,0.2,2.5,0.3c0.1-2.9-0.5-6.2,2.6-7.1c2.6-0.7,6.3-0.2,8.9-0.2c1.6,0,1-1.9-0.5-1.9c-4,0-7.9,0.1-11.9,0.3
			c-0.5,0-1,0.4-1,0.8c-0.3,2.6-0.5,5.2-0.6,7.8c0,1.3,2.3,1.5,2.5,0.3c0.3-2.1,0.8-4,1.4-6.1c-0.6,0.1-1.3,0.2-1.9,0.4
			C53.1,11.7,58.7,25,52.8,37.8c-2.3,4.9-5.2,9.9-9.7,13.2c-6,4.4-15.2,4.5-21.9,1.9C9,48.2,0.3,37,2.9,23.6
			C5.7,8.9,20-1.5,34.8,2.9C36.2,3.3,37.3,1.6,35.7,1.1L35.7,1.1z"/>
	</g>
</g>
<g>
	<g>
		<path class="st0" d="M82.9,178.2c0-17,0-34.1,0-51.1c0-1.4-2.2-1.7-2.2-0.1c0,17,0,34.1,0,51.1C80.7,179.5,82.9,179.8,82.9,178.2
			L82.9,178.2z"/>
	</g>
</g>
<g>
	<g>
		<path class="st0" d="M81.4,126.7c8.5,16.8,17.3,33.6,26.2,50.2c0.4,0.7,2.8,1,2.2,0c-9-16.6-17.7-33.3-26.2-50.2
			C83.3,126,80.9,125.7,81.4,126.7L81.4,126.7z"/>
	</g>
</g>
<g>
	<g>
		<path class="st0" d="M110.1,176.9c7.4-17.2,15.3-34.2,24-50.8c0.4-0.7-1.5-2.3-2-1.3c-8.6,16.6-16.6,33.6-24,50.8
			C107.7,176.4,109.6,177.9,110.1,176.9L110.1,176.9z"/>
	</g>
</g>
<g>
	<g>
		<path class="st0" d="M133.1,124.1c0,19.1,0,38.2,0,57.3c0,0.8,2.2,3.5,2.2,2.4c0-19.1,0-38.2,0-57.3
			C135.3,125.7,133.1,123.1,133.1,124.1L133.1,124.1z"/>
	</g>
</g>
<path class="st1" d="M134.1,183.4c42.1,0,84.3,0,126.4,0"/>
<path class="st1" d="M256.4,176.3c1.4,2.1,2.7,4.2,4.1,6.2c0.2,0.3,0.4,0.7,0.4,1c0,0.3-0.3,0.6-0.5,0.9c-1.6,2-3.2,3.9-4.8,5.9"/>
</svg>
